nColumns=28
nRows=26
DataType=double
version=3
OpenSimVersion=4.1
endheader
time	ground_force_1_vx	ground_force_1_vy	ground_force_1_vz	ground_force_1_px	ground_force_1_py	ground_force_1_pz	ground_force_1_mx	ground_force_1_my	ground_force_1_mz	ground_force_2_vx	ground_force_2_vy	ground_force_2_vz	ground_force_2_px	ground_force_2_py	ground_force_2_pz	ground_force_2_mx	ground_force_2_my	ground_force_2_mz	ground_force_3_vx	ground_force_3_vy	ground_force_3_vz	ground_force_3_px	ground_force_3_py	ground_force_3_pz	ground_force_3_mx	ground_force_3_my	ground_force_3_mz
6.7	-1.98726	509.441	-31.6586	-0.207753	0.006	-0.378902	0	-2.23637	0	-2.08745	185.637	22.0602	-0.196071	0.006	-0.748261	0	3.25703	0	0	0	0	0	0	0	0	0	0
6.71	-2.38315	505.833	-31.3829	-0.2069	0.006	-0.378665	0	-2.1856	0	-2.40717	184.275	21.9394	-0.195003	0.006	-0.748224	0	3.23453	0	0	0	0	0	0	0	0	0	0
6.72	-2.74228	502.001	-31.142	-0.206063	0.006	-0.378428	0	-2.14497	0	-2.77489	182.803	21.8697	-0.193774	0.006	-0.748256	0	3.20589	0	0	0	0	0	0	0	0	0	0
6.73	-3.06136	498.003	-30.9235	-0.205255	0.006	-0.3782	0	-2.11648	0	-3.19039	181.266	21.8556	-0.192402	0.006	-0.748355	0	3.1715	0	0	0	0	0	0	0	0	0	0
6.74	-3.34191	493.891	-30.7153	-0.204487	0.006	-0.377989	0	-2.10131	0	-3.64855	179.711	21.8968	-0.190916	0.006	-0.748512	0	3.13199	0	0	0	0	0	0	0	0	0	0
6.75	-3.58907	489.711	-30.5059	-0.203772	0.006	-0.377804	0	-2.09973	0	-4.13993	178.19	21.9885	-0.189355	0.006	-0.748716	0	3.08812	0	0	0	0	0	0	0	0	0	0
6.76	-3.80941	485.499	-30.2846	-0.203116	0.006	-0.377652	0	-2.11101	0	-4.65217	176.748	22.1231	-0.187765	0.006	-0.748954	0	3.04077	0	0	0	0	0	0	0	0	0	0
6.77	-4.01028	481.282	-30.0421	-0.202525	0.006	-0.377539	0	-2.13362	0	-5.17162	175.417	22.2904	-0.18619	0.006	-0.749209	0	2.99099	0	0	0	0	0	0	0	0	0	0
6.78	-4.2004	477.082	-29.7702	-0.202003	0.006	-0.377469	0	-2.16545	0	-5.68527	174.213	22.4778	-0.18467	0.006	-0.749464	0	2.9399	0	0	0	0	0	0	0	0	0	0
6.79	-4.38856	472.918	-29.4625	-0.20155	0.006	-0.377443	0	-2.20412	0	-6.18219	173.137	22.6705	-0.183241	0.006	-0.7497	0	2.88847	0	0	0	0	0	0	0	0	0	0
6.8	-4.58055	468.805	-29.1149	-0.201166	0.006	-0.377461	0	-2.24704	0	-6.6532	172.181	22.8539	-0.181931	0.006	-0.749901	0	2.83754	0	0	0	0	0	0	0	0	0	0
6.81	-4.77825	464.754	-28.7264	-0.200848	0.006	-0.377521	0	-2.29151	0	-7.08965	171.335	23.0161	-0.180762	0.006	-0.750054	0	2.78796	0	0	0	0	0	0	0	0	0	0
6.82	-4.98076	460.77	-28.2999	-0.200593	0.006	-0.377618	0	-2.33512	0	-7.48338	170.591	23.1495	-0.17975	0.006	-0.750151	0	2.74047	0	0	0	0	0	0	0	0	0	0
6.83	-5.18495	456.856	-27.8419	-0.200397	0.006	-0.377746	0	-2.37601	0	-7.82751	169.941	23.2516	-0.178904	0.006	-0.750191	0	2.69571	0	0	0	0	0	0	0	0	0	0
6.84	-5.38503	453.02	-27.3595	-0.200258	0.006	-0.377898	0	-2.41306	0	-8.11669	169.375	23.3239	-0.178226	0.006	-0.750176	0	2.65426	0	0	0	0	0	0	0	0	0	0
6.85	-5.57241	449.272	-26.8607	-0.200174	0.006	-0.378066	0	-2.44588	0	-8.34696	168.892	23.3705	-0.177718	0.006	-0.750115	0	2.61673	0	0	0	0	0	0	0	0	0	0
6.86	-5.73743	445.627	-26.3546	-0.200142	0.006	-0.378244	0	-2.47472	0	-8.51505	168.492	23.3983	-0.177375	0.006	-0.750018	0	2.58379	0	0	0	0	0	0	0	0	0	0
6.87	-5.87153	442.098	-25.8513	-0.200162	0.006	-0.378427	0	-2.50038	0	-8.61837	168.182	23.4163	-0.177194	0.006	-0.749901	0	2.5561	0	0	0	0	0	0	0	0	0	0
6.88	-5.96781	438.7	-25.3607	-0.200232	0.006	-0.378609	0	-2.52394	0	-8.65541	167.972	23.4344	-0.177169	0.006	-0.749777	0	2.53419	0	0	0	0	0	0	0	0	0	0
6.89	-6.02057	435.446	-24.8917	-0.20035	0.006	-0.378786	0	-2.54648	0	-8.62564	167.87	23.462	-0.177294	0.006	-0.749661	0	2.5184	0	0	0	0	0	0	0	0	0	0
6.9	-6.02511	432.352	-24.4523	-0.200514	0.006	-0.378957	0	-2.56893	0	-8.52931	167.887	23.5079	-0.177558	0.006	-0.749567	0	2.50884	0	0	0	0	0	0	0	0	0	0
6.91	-5.97746	429.438	-24.0483	-0.200723	0.006	-0.379119	0	-2.59212	0	-8.36762	168.033	23.5807	-0.177952	0.006	-0.749505	0	2.50543	0	0	0	0	0	0	0	0	0	0
6.92	-5.87464	426.724	-23.6831	-0.200977	0.006	-0.379271	0	-2.61665	0	-8.1431	168.316	23.6879	-0.178466	0.006	-0.749484	0	2.50783	0	0	0	0	0	0	0	0	0	0
6.93	-5.71558	424.237	-23.3585	-0.201275	0.006	-0.379411	0	-2.6428	0	-7.85961	168.746	23.8346	-0.179085	0.006	-0.749511	0	2.51538	0	0	0	0	0	0	0	0	0	0
6.94	-5.50207	422.005	-23.0752	-0.201613	0.006	-0.379539	0	-2.67059	0	-7.52182	169.323	24.0218	-0.179793	0.006	-0.749589	0	2.52727	0	0	0	0	0	0	0	0	0	0
6.95	-5.23794	420.062	-22.833	-0.201991	0.006	-0.379655	0	-2.69954	0	-7.13487	170.047	24.2469	-0.180576	0.006	-0.749714	0	2.54268	0	0	0	0	0	0	0	0	0	0
